<?xml version="1.0" standalone="no"?><!DOCTYPE svg PUBLIC "-//W3C//DTD SVG 1.1//EN" "http://www.w3.org/Graphics/SVG/1.1/DTD/svg11.dtd"><svg t="1626940178632" class="icon" viewBox="0 0 1024 1024" version="1.1" xmlns="http://www.w3.org/2000/svg" p-id="10164" xmlns:xlink="http://www.w3.org/1999/xlink" width="16" height="16"><defs><style type="text/css">@font-face { font-family: feedback-iconfont; src: url("//at.alicdn.com/t/font_1031158_1uhr8ri0pk5.eot?#iefix") format("embedded-opentype"), url("//at.alicdn.com/t/font_1031158_1uhr8ri0pk5.woff2") format("woff2"), url("//at.alicdn.com/t/font_1031158_1uhr8ri0pk5.woff") format("woff"), url("//at.alicdn.com/t/font_1031158_1uhr8ri0pk5.ttf") format("truetype"), url("//at.alicdn.com/t/font_1031158_1uhr8ri0pk5.svg#iconfont") format("svg"); }
</style></defs><path d="M256 853.333333V213.333333h426.666667c46.933333 0 85.333333 38.4 85.333333 85.333334v554.666666c0 46.933333-38.4 85.333333-85.333333 85.333334H341.333333c-46.933333 0-85.333333-38.4-85.333333-85.333334z" fill="#546E7A" p-id="10165"></path><path d="M682.666667 277.333333H341.333333c-12.8 0-21.333333 8.533333-21.333333 21.333334v170.666666c0 12.8 8.533333 21.333333 21.333333 21.333334h341.333334c12.8 0 21.333333-8.533333 21.333333-21.333334v-170.666666c0-12.8-8.533333-21.333333-21.333333-21.333334z" fill="#4FC3F7" p-id="10166"></path><path d="M405.333333 640h-42.666666c-12.8 0-21.333333-8.533333-21.333334-21.333333v-21.333334c0-12.8 8.533333-21.333333 21.333334-21.333333h42.666666c12.8 0 21.333333 8.533333 21.333334 21.333333v21.333334c0 12.8-8.533333 21.333333-21.333334 21.333333zM533.333333 640h-42.666666c-12.8 0-21.333333-8.533333-21.333334-21.333333v-21.333334c0-12.8 8.533333-21.333333 21.333334-21.333333h42.666666c12.8 0 21.333333 8.533333 21.333334 21.333333v21.333334c0 12.8-8.533333 21.333333-21.333334 21.333333zM661.333333 640h-42.666666c-12.8 0-21.333333-8.533333-21.333334-21.333333v-21.333334c0-12.8 8.533333-21.333333 21.333334-21.333333h42.666666c12.8 0 21.333333 8.533333 21.333334 21.333333v21.333334c0 12.8-8.533333 21.333333-21.333334 21.333333zM405.333333 746.666667h-42.666666c-12.8 0-21.333333-8.533333-21.333334-21.333334v-21.333333c0-12.8 8.533333-21.333333 21.333334-21.333333h42.666666c12.8 0 21.333333 8.533333 21.333334 21.333333v21.333333c0 12.8-8.533333 21.333333-21.333334 21.333334zM533.333333 746.666667h-42.666666c-12.8 0-21.333333-8.533333-21.333334-21.333334v-21.333333c0-12.8 8.533333-21.333333 21.333334-21.333333h42.666666c12.8 0 21.333333 8.533333 21.333334 21.333333v21.333333c0 12.8-8.533333 21.333333-21.333334 21.333334zM661.333333 746.666667h-42.666666c-12.8 0-21.333333-8.533333-21.333334-21.333334v-21.333333c0-12.8 8.533333-21.333333 21.333334-21.333333h42.666666c12.8 0 21.333333 8.533333 21.333334 21.333333v21.333333c0 12.8-8.533333 21.333333-21.333334 21.333334zM405.333333 853.333333h-42.666666c-12.8 0-21.333333-8.533333-21.333334-21.333333v-21.333333c0-12.8 8.533333-21.333333 21.333334-21.333334h42.666666c12.8 0 21.333333 8.533333 21.333334 21.333334v21.333333c0 12.8-8.533333 21.333333-21.333334 21.333333zM533.333333 853.333333h-42.666666c-12.8 0-21.333333-8.533333-21.333334-21.333333v-21.333333c0-12.8 8.533333-21.333333 21.333334-21.333334h42.666666c12.8 0 21.333333 8.533333 21.333334 21.333334v21.333333c0 12.8-8.533333 21.333333-21.333334 21.333333zM661.333333 853.333333h-42.666666c-12.8 0-21.333333-8.533333-21.333334-21.333333v-21.333333c0-12.8 8.533333-21.333333 21.333334-21.333334h42.666666c12.8 0 21.333333 8.533333 21.333334 21.333334v21.333333c0 12.8-8.533333 21.333333-21.333334 21.333333z" fill="#B3E5FC" p-id="10167"></path><path d="M341.333333 213.333333h-85.333333V85.333333c0-23.466667 19.2-42.666667 42.666667-42.666666s42.666667 19.2 42.666666 42.666666v128z" fill="#37474F" p-id="10168"></path></svg>