<?xml version="1.0" standalone="no"?><!DOCTYPE svg PUBLIC "-//W3C//DTD SVG 1.1//EN" "http://www.w3.org/Graphics/SVG/1.1/DTD/svg11.dtd"><svg t="1626939366660" class="icon" viewBox="0 0 1068 1024" version="1.1" xmlns="http://www.w3.org/2000/svg" p-id="4732" xmlns:xlink="http://www.w3.org/1999/xlink" width="16.6875" height="16"><defs><style type="text/css">@font-face { font-family: feedback-iconfont; src: url("//at.alicdn.com/t/font_1031158_1uhr8ri0pk5.eot?#iefix") format("embedded-opentype"), url("//at.alicdn.com/t/font_1031158_1uhr8ri0pk5.woff2") format("woff2"), url("//at.alicdn.com/t/font_1031158_1uhr8ri0pk5.woff") format("woff"), url("//at.alicdn.com/t/font_1031158_1uhr8ri0pk5.ttf") format("truetype"), url("//at.alicdn.com/t/font_1031158_1uhr8ri0pk5.svg#iconfont") format("svg"); }
</style></defs><path d="M0 0h1068.521739v890.434783h-342.461217l-30.096696 133.565217-120.698435-133.565217H0z" fill="#FC931C" p-id="4733"></path><path d="M267.130435 534.26087a89.043478 89.043478 0 1 1 0-178.086957 89.043478 89.043478 0 0 1 0 178.086957z m267.130435 0a89.043478 89.043478 0 1 1 0-178.086957 89.043478 89.043478 0 0 1 0 178.086957z m267.130434 0a89.043478 89.043478 0 1 1 0-178.086957 89.043478 89.043478 0 0 1 0 178.086957z" fill="#FFFFFF" p-id="4734"></path></svg>